<svg width="25" height="25" viewBox="0 0 25 25" fill="none" xmlns="http://www.w3.org/2000/svg">
<path d="M8.5 8.5H6.7002C5.58009 8.5 5.01962 8.5 4.5918 8.71799C4.21547 8.90973 3.90973 9.21547 3.71799 9.5918C3.5 10.0196 3.5 10.5801 3.5 11.7002V17.3002C3.5 18.4203 3.5 18.9801 3.71799 19.4079C3.90973 19.7842 4.21547 20.0905 4.5918 20.2822C5.0192 20.5 5.57899 20.5 6.69691 20.5H18.3031C19.421 20.5 19.98 20.5 20.4074 20.2822C20.7837 20.0905 21.0905 19.7842 21.2822 19.4079C21.5 18.9805 21.5 18.4215 21.5 17.3036V11.6969C21.5 10.579 21.5 10.0192 21.2822 9.5918C21.0905 9.21547 20.7837 8.90973 20.4074 8.71799C19.9796 8.5 19.4203 8.5 18.3002 8.5H16.5M8.5 8.5H16.5M8.5 8.5C8.5 6.29086 10.2909 4.5 12.5 4.5C14.7091 4.5 16.5 6.29086 16.5 8.5" stroke="white" stroke-width="2" stroke-linecap="round" stroke-linejoin="round"/>
</svg>
