<svg width="24" height="24" viewBox="0 0 24 24" fill="none" xmlns="http://www.w3.org/2000/svg">
<g clip-path="url(#clip0_246_390)">
<path d="M15.6498 14.1918H14.8819L14.6098 13.9294C15.5623 12.8213 16.1358 11.3828 16.1358 9.8179C16.1358 6.32847 13.3073 3.5 9.8179 3.5C6.32847 3.5 3.5 6.32847 3.5 9.8179C3.5 13.3073 6.32847 16.1358 9.8179 16.1358C11.3828 16.1358 12.8213 15.5623 13.9294 14.6098L14.1918 14.8819V15.6498L19.0517 20.5L20.5 19.0517L15.6498 14.1918ZM9.8179 14.1918C7.39766 14.1918 5.44397 12.2381 5.44397 9.8179C5.44397 7.39766 7.39766 5.44397 9.8179 5.44397C12.2381 5.44397 14.1918 7.39766 14.1918 9.8179C14.1918 12.2381 12.2381 14.1918 9.8179 14.1918Z" fill="black"/>
</g>
<defs>
<clipPath id="clip0_246_390">
<rect width="24" height="24" fill="white"/>
</clipPath>
</defs>
</svg>
